PathFileType	4	(X/Y/Z)	s09c0303.trc
DataRate	CameraRate	NumFrames	NumMarkers	Units	OrigDataRate	OrigDataStartFrame	OrigNumFrames
200	200	5	50	mm	200	250	2000
Frame#	Time	racr			lacr			c7			jug			rlel			rdr			llel			ldr			s2			lic			ric			lasi			rasi			rpsi			lpsi			rgt			lgt			rth1			rth2			rth3			rth4			rlfc			rmfc			rsh1			rsh2			rsh3			rsh4			rlmal			rmmal			rcal			rtoe			rmt5			lth1			lth2			lth4			lth3			llfc			lmfc			llmal			lmmal			lcal			lmt5			lsh1			lsh2			lsh3			lsh4			ltoe			SBIKE			LBIKE			RBIKE			
		X1	Y1	Z1	X2	Y2	Z2	X3	Y3	Z3	X4	Y4	Z4	X5	Y5	Z5	X6	Y6	Z6	X7	Y7	Z7	X8	Y8	Z8	X9	Y9	Z9	X10	Y10	Z10	X11	Y11	Z11	X12	Y12	Z12	X13	Y13	Z13	X14	Y14	Z14	X15	Y15	Z15	X16	Y16	Z16	X17	Y17	Z17	X18	Y18	Z18	X19	Y19	Z19	X20	Y20	Z20	X21	Y21	Z21	X22	Y22	Z22	X23	Y23	Z23	X24	Y24	Z24	X25	Y25	Z25	X26	Y26	Z26	X27	Y27	Z27	X28	Y28	Z28	X29	Y29	Z29	X30	Y30	Z30	X31	Y31	Z31	X32	Y32	Z32	X33	Y33	Z33	X34	Y34	Z34	X35	Y35	Z35	X36	Y36	Z36	X37	Y37	Z37	X38	Y38	Z38	X39	Y39	Z39	X40	Y40	Z40	X41	Y41	Z41	X42	Y42	Z42	X43	Y43	Z43	X44	Y44	Z44	X45	Y45	Z45	X46	Y46	Z46	X47	Y47	Z47	X48	Y48	Z48	X49	Y49	Z49	X50	Y50	Z50	
250	1.2500	458.412084	1281.079383	-98.614779	443.837299	1273.543534	-408.201287	412.161408	1304.487833	-249.799861	423.792883	1170.110942	-247.431130	490.769013	1037.843724	-9.385097	692.705162	878.109893	-50.524631	451.189209	997.580001	-475.081332	687.042575	886.731748	-439.847226	-63.872197	1132.774398	-239.251964	77.129715	1127.103237	-384.811151	72.333470	1115.177622	-86.459550	118.861238	1069.753104	-363.982570	111.278201	1057.304410	-105.923862	-35.312651	1158.511522	-177.694248	-32.438488	1168.126881	-286.844485	28.989944	972.766983	-45.793372	37.911924	1009.471638	-429.317133	118.591086	864.418408	-48.063679	190.998041	815.030123	-50.797632	225.253143	733.700347	-61.669147	217.662375	835.493544	-66.836616	273.795837	647.512572	-91.749273	259.578332	635.510214	-189.398080	203.452801	571.320521	-64.587947	174.561214	487.736163	-81.233002	107.620150	430.362758	-83.024809	194.907412	478.533685	-114.289664	47.078986	350.900930	-86.505012	52.007382	363.588390	-165.355621	-37.006222	333.611021	-124.958891	218.888138	266.930756	-124.209949	133.120563	269.020497	-61.074915	154.199588	935.885208	-428.022698	237.485733	920.259131	-420.209970	253.888104	952.336606	-408.583276	305.849478	861.402007	-417.420516	384.632872	795.468536	-398.970965	403.577577	785.403084	-300.474713	328.556064	436.757772	-410.518371	338.761869	447.171694	-334.820426	263.113828	379.630932	-369.671237	434.411626	368.872495	-437.528573	368.408992	696.729012	-422.365736	377.642772	610.031241	-413.796199	340.667741	529.536630	-413.315302	402.944582	608.760214	-383.641497	520.376980	418.546904	-370.623945	-65.107757	850.233764	-241.589044	20.912056	83.446925	-442.388422	21.003879	83.846196	-43.968405	
251	1.2550	460.751773	1282.189689	-98.733180	445.821320	1274.119889	-409.423108	414.911419	1305.480564	-250.375692	426.745092	1171.144397	-247.826602	491.742702	1038.074504	-9.706533	692.772266	878.069170	-50.679179	451.728689	997.530560	-474.633761	687.252074	886.707136	-439.678773	-61.298069	1133.938308	-240.261695	80.104959	1127.907273	-385.126962	74.564021	1116.543743	-86.795422	121.674319	1070.365557	-364.121397	113.310058	1058.590038	-106.229886	-32.864086	1159.742854	-178.239156	-29.694247	1169.280371	-287.423458	30.930348	974.237034	-46.084820	40.959802	1010.322947	-429.470450	120.429741	865.855675	-47.984075	192.866372	816.535152	-50.538359	227.114855	735.219864	-61.201076	219.476281	837.062988	-66.692735	275.735288	648.671346	-91.217184	261.705862	636.850313	-188.919735	205.144831	572.754299	-64.138695	175.580343	489.553560	-80.990094	108.250732	432.603832	-82.905946	195.925388	480.292030	-114.084881	47.281324	353.251493	-86.563883	50.978795	367.025766	-164.421407	-36.889919	336.848802	-124.988725	218.583128	268.383448	-124.100144	132.756859	270.867794	-61.059673	156.438570	935.471145	-427.923069	239.561197	918.862251	-420.097284	256.324815	950.719828	-408.465789	307.178269	859.240153	-417.141951	385.008983	791.990837	-398.986165	403.876691	781.904820	-300.488624	328.848332	433.528942	-410.459673	338.846002	444.281623	-334.643899	263.623805	375.984573	-369.607304	434.764662	366.429730	-437.485558	368.590722	693.188616	-422.461855	377.854229	606.562433	-413.844839	340.936480	525.996970	-413.309902	403.120018	605.284258	-383.618148	520.572457	416.857507	-370.912577	-65.037342	850.254319	-241.594960	20.905211	83.434805	-442.405883	20.981708	83.855014	-43.984755	
252	1.2600	463.278004	1283.198938	-98.994250	448.042742	1274.801716	-410.493656	417.850059	1306.502334	-251.007105	428.846170	1171.959446	-248.331166	492.474969	1038.438100	-9.976898	692.787463	878.034912	-50.786097	452.221802	997.478367	-474.437401	687.463901	886.676690	-439.524983	-58.560517	1135.124436	-241.270853	83.206321	1128.727643	-385.452476	76.938375	1118.066870	-87.071790	124.686281	1071.108027	-364.205437	115.570880	1059.960099	-106.452301	-30.244641	1161.056899	-178.755177	-26.827808	1170.533142	-288.036816	33.503661	975.910187	-45.936881	44.138632	1011.194362	-429.638453	122.455150	867.667987	-47.762002	195.007431	818.179127	-50.241899	229.183859	736.906559	-60.682277	221.554387	838.680361	-66.592082	277.828661	649.977573	-90.563306	263.991678	638.179042	-188.373737	206.756509	574.311033	-63.526878	176.648178	491.305917	-80.638029	108.941503	434.905153	-82.723010	197.005823	481.946999	-113.673313	47.371536	356.004129	-86.459807	51.243333	369.610080	-164.286547	-36.725821	340.015887	-125.025385	218.162185	269.766634	-124.022195	132.349660	272.798919	-61.083151	158.867532	935.262611	-427.838728	241.734948	917.654240	-420.023885	258.858283	949.335703	-408.403567	308.669041	857.166438	-416.960769	385.474759	788.692503	-399.008986	404.665215	778.658629	-300.503059	329.070243	430.383564	-410.593602	339.022478	441.395052	-334.570998	264.013153	372.699208	-369.555614	435.294415	363.876207	-437.533299	368.887204	689.689165	-422.461849	377.840438	603.412059	-414.112282	341.305612	522.589003	-413.288289	403.362138	602.004213	-383.599789	520.739166	415.379403	-371.056204	-64.963271	850.285233	-241.632180	20.914415	83.431439	-442.428270	20.972727	83.871065	-44.003941	
253	1.2650	466.071665	1284.148088	-99.371088	450.417288	1275.515481	-411.433030	421.011805	1307.507423	-251.571152	432.030515	1172.987910	-248.871011	493.116286	1038.757570	-10.071664	692.821199	878.034534	-50.865503	452.757811	997.405744	-474.384216	687.660283	886.647478	-439.365743	-55.627932	1136.473018	-241.939813	86.423706	1129.564727	-385.782147	79.465777	1119.642283	-87.381647	127.716978	1071.704365	-364.295213	118.277327	1061.592441	-106.544628	-27.587487	1162.408936	-179.358856	-23.746447	1171.920915	-288.753076	35.972893	977.691347	-46.097978	47.549346	1012.086853	-429.773752	124.861805	869.584019	-47.480978	197.457612	820.054078	-49.962886	231.522323	738.701274	-60.118846	223.836398	840.446638	-66.549913	280.075849	651.227078	-89.867797	266.472477	639.443035	-187.569565	208.270777	576.035666	-62.919132	177.711724	493.370734	-80.177745	109.742075	437.168838	-82.455898	198.199687	483.766593	-113.143896	47.465959	358.960621	-86.430523	51.477201	372.345373	-164.098744	-36.399725	343.416821	-125.077777	218.052965	270.911100	-123.949046	132.117839	274.627381	-61.070111	161.327270	935.261524	-427.833857	244.073476	916.649006	-419.918114	261.515142	948.156933	-408.302958	310.234172	855.373493	-416.976370	386.071871	785.667221	-399.014548	405.194125	775.847317	-299.868191	329.294411	427.478010	-410.670591	339.090748	438.767250	-334.568707	264.410294	369.527645	-369.739674	435.847677	361.510309	-437.492740	369.208589	686.673526	-422.517578	378.219461	600.340606	-414.204433	341.614124	519.542475	-413.246324	403.655902	598.996295	-383.543156	520.861583	413.726419	-371.018580	-64.884472	850.314372	-241.622197	20.930667	83.451610	-442.409786	20.982776	83.862370	-44.015156	
254	1.2700	469.010643	1284.949921	-99.789423	453.035029	1276.306067	-412.157214	424.293008	1308.412099	-252.264097	434.823220	1173.791799	-249.446431	493.573433	1038.948184	-9.847059	692.881375	877.965566	-50.964521	453.291405	997.383475	-474.430491	687.841425	886.684648	-439.241128	-52.696844	1137.834244	-242.878963	89.746871	1130.420736	-386.109790	82.126610	1121.332939	-87.638473	130.876711	1072.418748	-364.333935	120.635041	1062.976897	-106.671046	-24.729765	1163.893257	-179.929390	-20.679566	1173.358796	-289.245710	38.630419	979.544030	-46.288727	51.076333	1013.074244	-429.937966	127.620805	871.734605	-47.226646	200.068588	822.210336	-49.735099	234.006685	740.672227	-59.518049	226.469383	842.348058	-66.603259	282.370308	652.444125	-89.117365	268.898729	640.874093	-186.959697	209.829712	577.894399	-62.508140	178.807309	495.377111	-79.654814	110.560052	439.548441	-82.208461	199.426922	485.613424	-112.508555	47.724033	361.838282	-86.341009	52.204707	375.011323	-164.038102	-35.890083	346.797255	-125.064593	217.735891	272.052690	-123.928910	131.960180	276.459339	-61.037560	164.035859	935.402780	-427.850343	246.489673	915.798361	-419.817407	264.272416	947.036335	-407.901104	311.887719	853.773379	-417.057823	387.125939	783.244053	-399.592434	405.754935	772.464862	-300.544929	329.542055	424.751613	-410.815053	339.367178	436.442604	-334.568689	264.891606	366.330158	-369.767982	436.397246	359.240545	-437.450527	369.590725	683.995926	-422.612248	378.557059	597.703892	-414.277347	341.967187	516.936242	-413.359252	403.971539	596.374002	-383.634032	521.128648	411.935884	-371.295754	-64.850830	850.295342	-241.616638	20.928624	83.332554	-442.490581	21.009578	83.858041	-43.988634	
